<svg stroke-miterlimit="10" style="fill-rule:nonzero;clip-rule:evenodd;stroke-linecap:round;stroke-linejoin:round" viewBox="0 0 250 250" xml:space="preserve" xmlns="http://www.w3.org/2000/svg" xmlns:vectornator="http://vectornator.io"><path d="M100.75 70.5c-19.33 0-35 15.835-35 35.375 0 10.01 4.14 19.033 10.75 25.469l48.812 49.344L174 131.438l.812-.813-.093-.094c5.861-6.326 9.531-14.742 9.531-24.093 0-19.54-15.67-35.376-35-35.376-9.252 0-17.617 3.667-23.875 9.594l-.063-.062-.062.062c-6.314-6.264-14.954-10.156-24.5-10.156zm1.219 6.156c9.238 0 17.412 4.163 23.031 10.594l.156-.156.25.25c5.609-6.166 13.608-10.125 22.625-10.125 16.928 0 30.656 13.66 30.657 30.5-.001 9.102-4.08 17.163-10.438 22.75l-43.094 42.875-43.344-43.125.126-.125c-6.468-5.59-10.626-13.745-10.626-22.938 0-16.839 13.73-30.5 30.657-30.5z" fill-rule="evenodd" vectornator:layerName="Layer 1"/></svg>