<?xml version="1.0" encoding="UTF-8" standalone="no"?>
<!DOCTYPE svg PUBLIC "-//W3C//DTD SVG 1.1//EN" "http://www.w3.org/Graphics/SVG/1.1/DTD/svg11.dtd">
<!-- Created with Vectornator (http://vectornator.io/) -->
<svg height="100%" stroke-miterlimit="10" style="fill-rule:nonzero;clip-rule:evenodd;stroke-linecap:round;stroke-linejoin:round;" version="1.1" viewBox="0 0 210 210" width="100%" xml:space="preserve" xmlns="http://www.w3.org/2000/svg" xmlns:vectornator="http://vectornator.io" xmlns:xlink="http://www.w3.org/1999/xlink">
<defs/>
<g id="Untitled" vectornator:layerName="Untitled">
<path d="M5 105C5 49.772 49.772 5 105 5C160.228 5 205 49.772 205 105C205 160.228 160.228 205 105 205C49.772 205 5 160.228 5 105ZM105 192.5C153.325 192.5 192.5 153.325 192.5 105C192.5 56.675 153.325 17.5 105 17.5C56.675 17.5 17.5 56.675 17.5 105C17.5 153.325 56.675 192.5 105 192.5Z" fill="#000000" fill-rule="evenodd" opacity="1" stroke="none"/>
<path d="M159 137.582L51 137.582L105 49.8424L159 137.582ZM105 70.1454L69 126.65L141 126.65L105 70.1454Z" fill="#000000" fill-rule="evenodd" opacity="1" stroke="none"/>
</g>
</svg>
