<svg id="e80ctj5J9so1" xmlns="http://www.w3.org/2000/svg" xmlns:xlink="http://www.w3.org/1999/xlink" viewBox="0 0 300 300" shape-rendering="geometricPrecision" text-rendering="geometricPrecision"><path d="M50,150C50,94.77153,94.77153,50,150,50s100,44.77153,100,100-44.77153,100-100,100-100-44.77153-100-100Zm100,87.5c48.32492,0,87.5-39.17508,87.5-87.5s-39.17508-87.5-87.5-87.5-87.5,39.17508-87.5,87.5s39.17508,87.5,87.5,87.5Z"/><g transform="matrix(.926351 0 0 1 11.047351 0.000013)"><path d="M210,192.47041h-120l60-85l60,85Zm-60-65.33065l-40,54.74h80l-40-54.74Z" transform="matrix(.971554 0 0 1.032245 4.2669-20.120376)" stroke-width="0"/></g></svg>